<?xml version="1.0" encoding="UTF-8"?>
<svg id="Capa_2" data-name="Capa 2" xmlns="http://www.w3.org/2000/svg" viewBox="0 0 15.91 15.91">
  <defs>
    <style>
      .cls-1 {
        fill: #e0e0e0;
      }
    </style>
  </defs>
  <g id="arte">
    <path class="cls-1" d="M7.96,9.83l5.69,5.69c.52,.52,1.36,.52,1.88,0,.52-.52,.52-1.36,0-1.88l-5.69-5.69L15.52,2.26c.52-.52,.52-1.36,0-1.88s-1.36-.52-1.88,0L7.96,6.08,2.26,.39c-.52-.52-1.36-.52-1.88,0C.13,.65,0,.99,0,1.33s.13,.68,.39,.94L6.08,7.96,.39,13.65C.13,13.91,0,14.25,0,14.59s.13,.68,.39,.94c.52,.52,1.36,.52,1.88,0l5.69-5.69Z"/>
  </g>
</svg>