<?xml version="1.0" encoding="UTF-8"?>
<svg id="Capa_2" data-name="Capa 2" xmlns="http://www.w3.org/2000/svg" viewBox="0 0 99.14 97.78">
  <defs>
    <style>
      .cls-1 {
        fill: #119f52;
      }
    </style>
  </defs>
  <g id="arte">
    <g>
      <g>
        <path class="cls-1" d="M40.5,51.79c-2.08,.28-4.04,1.29-5.03,3.21-.5,.98-.93,2-1.4,2.99-.44,.94,.96,1.76,1.4,.82,.43-.92,.85-1.85,1.3-2.77,.81-1.7,2.34-2.43,4.16-2.68,1.03-.14,.59-1.7-.43-1.56h0Z"/>
        <path class="cls-1" d="M58.64,45.99c2.08-.28,4.04-1.29,5.03-3.21,.49-.96,.92-1.96,1.37-2.94,.44-.94-.96-1.76-1.4-.82-.42,.91-.84,1.82-1.27,2.73-.81,1.7-2.34,2.43-4.16,2.68-1.03,.14-.59,1.7,.43,1.56h0Z"/>
        <path class="cls-1" d="M73.02,35.14c-.37-.75-1.06-1.06-1.78-1.37-1.8-.76-3.61-1.52-5.41-2.28-5.65-2.38-11.3-4.76-16.95-7.15-1.41-.59-2.82-1.31-4.27-1.79-1.34-.45-2.83,.27-3.12,1.71-.26,1.32,.58,2.24,1.69,2.73,.23,.1,.47,.2,.7,.3-.21,.14-.4,.35-.51,.64-.75,1.97-1.61,3.93-2.24,5.95-1.24,4.03,1,7.32,3.35,10.34,.29,.38,.85,.86,1.01,1.31,.16,.44-.13,.88-.31,1.29-.18,.45-.36,1.24-.76,1.46-.35,.19-.99,.14-1.38,.18-3.46,.39-6.94,.77-9.29,3.68-1.59,1.97-2.46,4.68-3.52,6.95-.12,.26-.15,.52-.11,.76-.35-.14-.71-.28-1.07-.4-1.34-.45-2.83,.28-3.11,1.72-.27,1.31,.57,2.24,1.69,2.73,4.35,1.91,8.77,3.7,13.16,5.55,4.6,1.94,9.21,3.88,13.81,5.82,1.91,.52,3.8-1.31,2.86-3.22-.37-.76-1.05-1.07-1.77-1.37-.15-.06-.29-.12-.44-.18,.22-.13,.42-.34,.53-.64,.74-1.97,1.61-3.94,2.23-5.95,1.25-4.04-.99-7.32-3.34-10.35-.29-.37-.85-.85-1.01-1.3-.16-.44,.13-.88,.3-1.29,.19-.45,.37-1.25,.76-1.46,.35-.2,1-.14,1.39-.19,3.45-.39,6.94-.76,9.29-3.67,1.59-1.97,2.45-4.68,3.51-6.95,.13-.29,.15-.57,.1-.82,.38,.16,.77,.32,1.15,.48,1.91,.52,3.8-1.3,2.86-3.22Zm-6.21,2.33c-.88,1.9-1.68,3.86-2.67,5.71-1.79,3.34-5.59,3.42-8.89,3.81-1.5,.17-2.51,.66-3.12,2.1-.54,1.29-1.34,2.56-.76,3.97,.46,1.13,1.54,2.17,2.28,3.12,1.16,1.51,2.2,3.11,2.28,5.08,.06,1.54-.6,2.93-1.13,4.34-.46,1.2-.91,2.41-1.37,3.61-.07,.18-.09,.34-.07,.49-1.03-.43-2.06-.87-3.09-1.3-5.65-2.38-11.3-4.77-16.95-7.15-.42-.18-.84-.37-1.27-.55,.11-.09,.2-.22,.28-.38,.89-1.9,1.69-3.87,2.68-5.71,1.79-3.34,5.59-3.43,8.89-3.81,1.49-.17,2.5-.66,3.11-2.1,.55-1.29,1.35-2.56,.77-3.98-.46-1.13-1.54-2.16-2.28-3.12-1.17-1.5-2.2-3.1-2.28-5.07-.06-1.54,.6-2.93,1.13-4.34,.45-1.2,.91-2.41,1.36-3.62,.06-.17,.09-.32,.09-.46,3.5,1.51,7.03,2.95,10.54,4.43,3.59,1.51,7.18,3.02,10.76,4.53-.11,.1-.21,.23-.29,.4Z"/>
      </g>
      <g>
        <path class="cls-1" d="M82.12,18.58c-6.7-7.28-15.54-12.23-25.28-14.02-15.52-2.84-31.66,2.99-41.99,14.84C4.52,31.26,1.42,47.81,6.07,62.65c3.46-3.65,6.9-7.29,10.34-10.94-1.78,.06-3.57,.11-5.35,.16-1.07,.03-1.92-.92-1.94-1.94-.12-4.69,.56-9.41,2.07-13.85,5.36-15.65,20.07-26.43,36.57-26.99,2.51-.08,2.5,3.81,0,3.9-4.24,.14-8.4,1.01-12.35,2.57-13.24,5.26-21.94,18.32-22.38,32.36,2.67-.08,5.35-.15,8.02-.23,1.74-.05,2.5,2.14,1.38,3.32-.67,.71-1.34,1.42-2.01,2.13-4.58,4.84-9.16,9.69-13.74,14.54-1.1,1.15-2.75,.42-3.26-.86C-.53,56.81-1.09,45.53,1.93,35.18,6.48,19.56,18.9,6.94,34.45,2.13c17.88-5.53,37.77-.04,50.43,13.7,1.69,1.84-1.05,4.6-2.76,2.75Z"/>
        <path class="cls-1" d="M97.22,62.6c-4.55,15.63-16.97,28.25-32.52,33.05-17.89,5.54-37.77,.05-50.43-13.69-1.7-1.84,1.05-4.6,2.75-2.75,6.71,7.27,15.54,12.23,25.29,14.01,15.52,2.85,31.66-2.98,41.99-14.83,10.33-11.86,13.44-28.42,8.78-43.26-3.45,3.65-6.89,7.29-10.34,10.93,1.78-.04,3.56-.1,5.34-.15,1.08-.03,1.93,.92,1.95,1.95,.11,4.68-.56,9.41-2.08,13.85-5.35,15.65-20.06,26.43-36.56,26.98-2.51,.09-2.5-3.81,0-3.89,4.24-.14,8.4-1.01,12.35-2.58,13.23-5.25,21.94-18.31,22.38-32.35-2.68,.07-5.35,.15-8.03,.23-1.74,.05-2.49-2.14-1.37-3.33,.67-.7,1.34-1.41,2.01-2.12,4.58-4.85,9.16-9.69,13.74-14.54,1.1-1.16,2.74-.43,3.25,.86,3.96,10.01,4.51,21.29,1.5,31.63Z"/>
      </g>
    </g>
  </g>
</svg>