<?xml version="1.0" encoding="UTF-8"?>
<svg id="Capa_2" data-name="Capa 2" xmlns="http://www.w3.org/2000/svg" viewBox="0 0 65.07 92.71">
  <defs>
    <style>
      .cls-1 {
        fill: #119f52;
      }

      .cls-2 {
        opacity: .61;
      }
    </style>
  </defs>
  <g id="arte">
    <g>
      <g class="cls-2">
        <path class="cls-1" d="M35.11,33.39c-.06-.01-.12-.01-.18-.01h-.17c-1.2,0-2.33,.28-3.35,.77l-.03-8.72c0-2.1-.87-4.15-2.35-5.64-1.44-1.44-3.34-2.25-5.36-2.28h-.17c-4.3,.03-7.78,3.55-7.77,7.85l.05,11.14c-1-.61-1.94-1.35-2.81-2.21-5.88-5.88-5.88-15.43,0-21.31,5.89-5.88,15.43-5.88,21.32,0,5.59,5.59,5.87,14.49,.82,20.41Z"/>
      </g>
      <path class="cls-1" d="M65.07,65.86l-.02-3.96-.05-13.37c-.01-2.08-.82-4.03-2.29-5.5-1.47-1.48-3.43-2.29-5.52-2.29h-.19c-1.27,.03-2.5,.36-3.59,.98-.38-1.13-1.02-2.18-1.89-3.05-1.49-1.48-3.46-2.3-5.56-2.29h-.15c-.9,.02-1.77,.19-2.58,.51,6.22-9.2,5.26-21.84-2.87-29.98C31.13-2.3,16.13-2.3,6.91,6.91-2.3,16.13-2.3,31.14,6.91,40.36c2.59,2.59,5.65,4.46,8.91,5.59l.02,3.77c-1.42-1.21-3.25-1.88-5.11-1.88-.8,.01-1.6,.14-2.37,.38h-.01s-.01,.01-.01,.01c-4.1,1.33-6.35,5.75-5.02,9.85l2.95,9.08v.03s.02,.02,.02,.02l2.8,8.3c1.25,3.7,3.37,7.12,6.13,9.88,4.55,4.55,10.54,7.14,16.88,7.31h.01c.26,.01,.53,.01,.78,.01h.02l5.55-.03c1.52,0,3.03-.14,4.48-.39,3.23-.56,6.3-1.7,9.12-3.39,7.59-4.55,12.17-11.61,12.9-19.89,.1-.83,.11-2.11,.11-2.12h0s0-1.03,0-1.03ZM15.73,25.36l.05,11.14,.02,4.97c-2.16-.95-4.18-2.3-5.94-4.06-7.59-7.6-7.59-19.95,0-27.54,7.59-7.6,19.95-7.6,27.54,0,6.82,6.82,7.51,17.49,2.07,25.09-1.26-.96-2.77-1.51-4.36-1.57-.06-.01-.12-.01-.18-.01h-.17c-1.2,0-2.33,.28-3.35,.77l-.03-8.72c0-2.1-.87-4.15-2.35-5.64-1.44-1.44-3.34-2.25-5.36-2.28h-.17c-4.3,.03-7.78,3.55-7.77,7.85Zm45.32,43.22c-.63,7.49-4.88,13.28-11.01,16.95-2.35,1.41-4.97,2.41-7.77,2.89-1.24,.22-2.52,.33-3.83,.33l-5.55,.03c-.23,0-.46,0-.69-.01-5.46-.14-10.48-2.44-14.2-6.16-2.31-2.3-4.1-5.15-5.19-8.36l-2.8-8.3-2.95-9.08c-.67-2.05,.45-4.24,2.5-4.91,.39-.12,.79-.19,1.19-.19,1.04,0,2.04,.42,2.76,1.14,.43,.43,.76,.95,.95,1.55l2.49,7.64,.13,.42c.08,.24,.2,.43,.35,.58,.26,.27,.62,.39,.97,.39,.71,0,1.42-.51,1.41-1.4l-.06-15.14-.02-4.24v-4.53s-.07-12.83-.07-12.83c-.01-2.15,1.73-3.9,3.88-3.91h.07c1.03,.01,1.96,.44,2.64,1.13,.74,.74,1.2,1.76,1.2,2.87l.05,12.75,.02,4.52,.02,4.24,.04,9.01c0,.46,.19,.89,.5,1.19,.29,.29,.69,.48,1.13,.49h.06c.94,0,1.69-.83,1.69-1.78l-.04-9.73-.02-4.43v-.48c-.01-2.15,1.73-3.9,3.88-3.92,.02,.01,.05,0,.07,.01,.74,.01,1.43,.23,2.01,.62,.23,.14,.44,.31,.63,.51,.74,.74,1.19,1.76,1.2,2.87v.55l.07,16.08c0,.47,.19,.89,.5,1.2,.29,.29,.69,.48,1.13,.49h.06c.94,0,1.7-.84,1.69-1.78l-.06-13.5c0-2.15,1.67-3.99,3.81-4.04h.07c1.08-.01,2.06,.43,2.77,1.14,.71,.7,1.14,1.67,1.14,2.73l.07,16.09c0,.46,.19,.88,.5,1.19,.3,.31,.73,.49,1.2,.49,.94,0,1.69-.76,1.68-1.7l-.04-11.55c-.01-2.14,1.66-3.99,3.8-4.04h.07c1.09,0,2.07,.44,2.77,1.14,.71,.7,1.14,1.67,1.14,2.74l.06,13.37v3.96s.02,1.03,.02,1.03c0,.34-.03,1.36-.09,1.68Z"/>
    </g>
  </g>
</svg>