<?xml version="1.0" encoding="UTF-8"?>
<svg xmlns="http://www.w3.org/2000/svg" viewBox="0 0 19.86 27.47">
  <defs>
    <style>
      .cls-1 {
        fill: #e5373a;
      }

      .cls-2 {
        fill: #fa9401;
      }

      .cls-3 {
        isolation: isolate;
      }

      .cls-4 {
        fill: #d1d3d4;
      }

      .cls-4, .cls-5 {
        mix-blend-mode: multiply;
      }

      .cls-6 {
        mix-blend-mode: screen;
      }

      .cls-7 {
        fill: #ffaa01;
      }

      .cls-8 {
        fill: #f9d511;
      }

      .cls-9 {
        fill: #231f20;
      }

      .cls-5 {
        fill: #e6e7e8;
      }
    </style>
  </defs>
  <g class="cls-3">
    <g id="Capa_2" data-name="Capa 2">
      <g id="arte">
        <g>
          <polygon class="cls-1" points="5.69 27.47 3.94 23.83 0 24.74 4.99 14.33 10.68 17.05 5.69 27.47"/>
          <polygon class="cls-5" points="10.34 16.89 5.48 27.02 5.69 27.47 10.68 17.05 10.34 16.89"/>
          <polygon class="cls-1" points="14.16 27.47 15.92 23.83 19.86 24.74 14.87 14.33 9.17 17.05 14.16 27.47"/>
          <polygon class="cls-5" points="9.52 16.89 14.38 27.02 14.16 27.47 9.17 17.05 9.52 16.89"/>
          <path class="cls-4" d="M15.17,14.97c-1.34,1.35-3.2,2.19-5.24,2.19-1.06,0-2.07-.22-2.98-.63-.85-.38-1.62-.91-2.27-1.56l-.8,1.66c.46,.03,1.02-.04,1.34,.17,.25,.17,.39,.55,.55,.91,.14,.33,.29,.64,.55,.75,.53,.22,1.37-.51,1.95-.4,.49,.1,.92,.86,1.42,1.06l.23-.49,.23,.49c.5-.2,.93-.96,1.42-1.06,.58-.11,1.42,.62,1.95,.4,.54-.23,.62-1.34,1.1-1.66,.32-.21,.87-.14,1.34-.17l-.8-1.66Z"/>
          <g>
            <circle class="cls-8" cx="9.93" cy="9.41" r="7.58"/>
            <path class="cls-7" d="M18.23,11.06c.11-.56,1.11-1.05,1.11-1.65s-1-1.09-1.11-1.65c-.11-.58,.62-1.42,.4-1.95-.11-.26-.42-.41-.75-.55-.36-.15-.74-.29-.91-.55-.33-.49,.03-1.54-.38-1.95-.17-.17-.45-.21-.76-.22-.43-.01-.91,.03-1.19-.16-.16-.11-.28-.31-.38-.53-.2-.44-.36-.98-.72-1.13-.53-.22-1.37,.51-1.95,.4-.56-.11-1.06-1.11-1.65-1.11s-1.09,1-1.65,1.11c-.06,.01-.13,.02-.2,0-.56-.04-1.28-.6-1.75-.41-.54,.23-.62,1.34-1.1,1.66-.49,.33-1.54-.03-1.95,.38-.41,.41-.06,1.47-.38,1.95-.32,.48-1.43,.55-1.66,1.1-.2,.48,.36,1.19,.41,1.75,0,.07,0,.14,0,.2-.11,.56-1.11,1.06-1.11,1.65s1,1.09,1.11,1.65c.11,.58-.62,1.42-.4,1.95,.15,.36,.69,.51,1.13,.72,.22,.1,.42,.22,.53,.38,.19,.28,.15,.76,.16,1.19,.01,.31,.05,.59,.22,.76,.41,.41,1.47,.06,1.95,.38,.25,.17,.39,.55,.55,.91,.14,.33,.29,.64,.55,.75,.53,.22,1.37-.51,1.95-.4,.56,.11,1.06,1.11,1.65,1.11s1.09-1,1.65-1.11c.58-.11,1.42,.62,1.95,.4,.54-.23,.62-1.34,1.1-1.66,.49-.33,1.54,.03,1.95-.38s.06-1.47,.38-1.95c.32-.48,1.43-.55,1.66-1.1,.22-.53-.51-1.37-.4-1.95Zm-8.3,5.74c-1.06,0-2.07-.22-2.98-.63-1.06-.47-1.99-1.18-2.72-2.05-.35-.42-.65-.88-.9-1.37-.51-1-.8-2.14-.8-3.35,0-1.39,.38-2.69,1.05-3.8,.63-1.04,1.5-1.91,2.54-2.54,1.11-.67,2.41-1.05,3.8-1.05,1.2,0,2.34,.29,3.35,.8,.49,.25,.95,.55,1.37,.9,.88,.73,1.59,1.66,2.05,2.72,.4,.91,.63,1.92,.63,2.98,0,4.08-3.32,7.39-7.39,7.39Z"/>
            <circle class="cls-7" cx="9.93" cy="9.41" r="6.75"/>
            <g>
              <path class="cls-2" d="M17.61,9.7c0-2.11-.89-4.02-2.32-5.37,1.25,1.33,2.03,3.11,2.03,5.08,0,4.08-3.32,7.39-7.39,7.39-1.96,0-3.75-.77-5.08-2.03,1.35,1.42,3.26,2.32,5.37,2.32,4.08,0,7.39-3.32,7.39-7.39Z"/>
              <path class="cls-2" d="M3.47,9.76c0-3.73,3.02-6.75,6.75-6.75,2,0,3.8,.87,5.04,2.26-1.23-1.59-3.16-2.61-5.33-2.61-3.73,0-6.75,3.02-6.75,6.75,0,1.72,.65,3.3,1.71,4.49-.89-1.14-1.42-2.58-1.42-4.14Z"/>
            </g>
            <path class="cls-2" d="M13.94,8.74l-2.43-.43c-.07-.01-.14-.06-.17-.13l-1.05-2.18c-.08-.17-.33-.17-.42,0l-1.05,2.18c-.03,.07-.09,.11-.17,.13l-2.43,.43c-.19,.03-.26,.27-.11,.4l1.82,1.6c.06,.05,.09,.14,.07,.22l-.43,2.24c-.04,.19,.16,.34,.33,.25l2.07-1.08c.07-.04,.15-.04,.21,0l2.07,1.08c.17,.09,.37-.06,.33-.25l-.43-2.24c-.02-.08,.01-.16,.07-.22l1.82-1.6c.15-.13,.08-.37-.11-.4Z"/>
            <path class="cls-8" d="M13.79,8.48l-2.43-.43c-.07-.01-.14-.06-.17-.13l-1.05-2.18c-.08-.17-.33-.17-.42,0l-1.05,2.18c-.03,.07-.09,.11-.17,.13l-2.43,.43c-.19,.03-.26,.27-.11,.4l1.82,1.6c.06,.05,.09,.14,.07,.22l-.43,2.24c-.04,.19,.16,.34,.33,.25l2.07-1.08c.07-.04,.15-.04,.21,0l2.07,1.08c.17,.09,.37-.06,.33-.25l-.43-2.24c-.02-.08,.01-.16,.07-.22l1.82-1.6c.15-.13,.08-.37-.11-.4Z"/>
            <g class="cls-6">
              <path class="cls-9" d="M14.25,1.84l-.97,.97L3.34,12.76l-.97,.97c-.44-.2-.98-.36-1.13-.72-.22-.53,.51-1.37,.4-1.95-.11-.56-1.11-1.05-1.11-1.65s1-1.09,1.11-1.65c.01-.06,.02-.13,0-.2l1.95-1.95L8.08,1.12c.07,0,.13,0,.2,0,.56-.11,1.06-1.11,1.65-1.11s1.09,1,1.65,1.11c.58,.11,1.42-.62,1.95-.4,.36,.15,.51,.69,.72,1.13Z"/>
              <path class="cls-9" d="M17.87,5.25L5.77,17.36c-.15-.36-.29-.74-.55-.91-.49-.33-1.54,.03-1.95-.38-.17-.17-.21-.45-.22-.76l1.18-1.18L14.64,3.72l1.18-1.18c.31,0,.59,.05,.76,.22,.41,.41,.06,1.47,.38,1.95,.17,.25,.55,.39,.91,.55Z"/>
            </g>
          </g>
        </g>
      </g>
    </g>
  </g>
</svg>